<?xml version="1.0" encoding="UTF-8" standalone="no"?>
<!-- Created with Inkscape (http://www.inkscape.org/) -->

<svg
   width="180"
   height="180"
   viewBox="0 0 180 180"
   version="1.1"
   id="svg1"
   xml:space="preserve"
   xmlns="http://www.w3.org/2000/svg"
   xmlns:svg="http://www.w3.org/2000/svg"><defs
     id="defs1" /><g
     id="layer2"
     style="display:inline"><text
       xml:space="preserve"
       style="font-size:32px;fill:#ffffff;stroke:#808080;stroke-width:1;stroke-dasharray:none"
       x="211.4375"
       y="85.054329"
       id="text1"><tspan
         id="tspan1"
         x="211.4375"
         y="85.054329"
         style="font-style:normal;font-variant:normal;font-weight:normal;font-stretch:normal;font-size:32px;font-family:Futura;-inkscape-font-specification:Futura;fill:#ffffff;stroke:#808080;stroke-width:1;stroke-dasharray:none">Sprachen</tspan></text><text
       xml:space="preserve"
       style="font-style:normal;font-variant:normal;font-weight:normal;font-stretch:normal;font-size:32px;font-family:Futura;-inkscape-font-specification:Futura;fill:#ffffff;stroke:#808080;stroke-width:1;stroke-dasharray:none"
       x="241.17969"
       y="114.26413"
       id="text2"><tspan
         id="tspan2"
         x="241.17969"
         y="114.26413"
         style="font-size:32px;fill:#ffffff;stroke:#808080">Leser</tspan></text></g><g
     id="layer4"><g
       id="g3"
       transform="translate(-0.5919391,-1.955901)"><path
         style="fill:#1a1a1a;stroke:#000000;stroke-width:0.972974;stroke-linejoin:round;stroke-dasharray:none"
         d="m 15.449936,74.044551 6.286834,-5.908174 c 30.948419,2.669672 47.178318,9.316798 68.343808,26.62174 l 0.01723,6.026373 C 69.474227,83.151527 40.937644,73.520451 15.449936,74.044551 Z"
         id="path4-1-1" /><path
         style="fill:#1a1a1a;stroke:#000000;stroke-width:0.972974;stroke-linejoin:round;stroke-dasharray:none"
         d="m 165.69074,74.044551 -6.28683,-5.908174 c -30.94841,2.669672 -47.17832,9.316798 -68.343809,26.62174 l -0.01723,6.026373 C 111.66645,83.151527 140.20304,73.520451 165.69074,74.044551 Z"
         id="path9" /><path
         style="fill:#ff0000;stroke:#800000;stroke-width:1.03858;stroke-linejoin:round;stroke-dasharray:none;stroke-opacity:1;fill-opacity:1"
         d="m 8.9019,79.091773 6.839885,-6.187461 c 33.670957,2.795871 51.328601,9.757215 74.35602,27.880178 l 0.01873,6.31125 C 67.678712,88.629247 36.631762,78.542899 8.9019,79.091773 Z"
         id="path4-1" /><path
         style="fill:#ff0000;stroke:#8e0000;stroke-width:1.03858;stroke-linejoin:round;stroke-dasharray:none;fill-opacity:1;stroke-opacity:1"
         d="m 172.23879,79.091773 -6.83989,-6.187461 c -33.67096,2.795871 -51.3286,9.757215 -74.356026,27.880178 l -0.01873,6.31125 C 113.46197,88.629247 144.50892,78.542899 172.23879,79.091773 Z"
         id="path10" /><path
         style="fill:#ffff00;stroke:#808000;stroke-width:1.0855;stroke-linejoin:round;stroke-dasharray:none;fill-opacity:1;stroke-opacity:1"
         d="M 1.1346649,84.433146 8.6242147,78.260327 C 45.493287,81.049581 64.82808,87.994454 90.042677,106.07453 l 0.02046,6.29632 C 65.494186,93.948053 31.498352,83.88557 1.1346649,84.433146 Z"
         id="path4" /><path
         style="fill:#ffff00;stroke:#808000;stroke-width:1.0855;stroke-linejoin:round;stroke-dasharray:none;fill-opacity:1;stroke-opacity:1"
         d="m 180.04921,84.433146 -7.48955,-6.172819 c -36.86908,2.789254 -56.20386,9.734127 -81.418466,27.814203 l -0.02046,6.29632 C 115.68968,93.948053 149.68553,83.88557 180.04921,84.433146 Z"
         id="path11" /><path
         style="fill:#784421;stroke:#502d16;stroke-width:1.0855;stroke-linejoin:round;stroke-dasharray:none"
         d="m 17.267709,150.93275 c 33.569135,1.47223 46.018021,3.64602 72.795429,16.92002 V 112.37085 C 68.466261,95.476217 35.363413,84.671481 1.1346682,84.433146 Z"
         id="path3" /><path
         style="fill:#784421;stroke:#502d16;stroke-width:1.0855;stroke-linejoin:round;stroke-dasharray:none"
         d="m 163.91617,150.93275 c -33.56914,1.47223 -46.01802,3.64602 -72.795434,16.92002 V 112.37085 C 112.71762,95.476217 145.82046,84.671481 180.04921,84.433146 Z"
         id="path8" /><g
         id="g2"
         transform="matrix(1.8472572,0,0,1.8472572,-77.682373,-35.228459)"><ellipse
           style="display:inline;fill:#0000ff;stroke:#000080;stroke-width:1;stroke-linejoin:round;stroke-dasharray:none"
           id="path12"
           cx="90"
           cy="45.271755"
           rx="17.781143"
           ry="17.30142" /><path
           style="display:inline;fill:#008000;stroke:#000080;stroke-width:1;stroke-linejoin:round;stroke-dasharray:none"
           d="m 78.271398,32.217773 c -1.426412,2.952197 -2.199532,6.013277 -1.680068,9.289787 3.948009,1.532693 4.357763,2.521038 6.423789,3.764195 -4.775359,5.598081 3.821896,4.115054 1.976551,16.396619 l 3.656618,0.790621 c 0.48235,-3.533338 -1.298602,-9.113677 3.180931,-10.080408 0.420931,-1.664381 1.689698,-2.965404 0,-5.534341 -0.229651,-2.740578 -3.061688,-3.152705 -6.343412,-3.162481 -8.364775,-3.742229 0.43921,-3.512203 3.953101,-3.458961 0.463643,0.777157 0.814752,2.173253 1.581241,1.284756 2.301333,-4.210896 -1.669079,-3.468227 0.80907,-8.301512 0.835218,-1.694025 1.795925,-3.30962 3.911553,-4.203389 -7.443315,-2.081417 -12.252771,-1.014877 -17.469374,3.215114 z"
           id="path14" /><path
           style="display:inline;fill:#008000;stroke:#000080;stroke-width:1;stroke-linejoin:round;stroke-dasharray:none"
           d="m 101.23801,32.126136 -4.875373,1.475222 c -4.41516,6.979023 1.811132,2.725402 4.342613,2.37186 l 3.45896,1.778896 0.88945,1.680068 c -1.87114,-1.32096 -3.87465,-0.80071 -6.028482,-0.566868 -10.701018,5.184738 -1.744952,8.4111 2.569512,11.647689 1.14456,2.103194 1.4886,4.308795 1.18593,6.609305 1.18642,-1.54733 2.40648,-3.027359 3.45897,-4.842548 0.95309,-3.50931 1.79942,-7.063105 1.0871,-11.266338 -1.05172,-2.278116 -1.97325,-4.402012 -3.81565,-6.811908 z"
           id="path15" /></g></g></g></svg>
